<svg width="19" height="20" fill="none" xmlns="http://www.w3.org/2000/svg"><path d="m9.498 0 .28.005c5.042.15 9.07 3.927 9.052 8.548v.102c-.057 2.756-1.576 5.47-4.097 7.892a22.938 22.938 0 0 1-4.139 3.102l.011-.007-.053.04c-.602.394-1.4.422-2.03.085l-.142-.084-.067-.047-.455-.279a22.14 22.14 0 0 1-4.994-4.256l-.35-.413C1.03 12.92.187 10.776.103 8.526l.005-.285C.273 3.651 4.42-.016 9.497 0Zm-.006 1.518-.264.003c-4.13.114-7.446 3.191-7.46 6.979l.021.357c.143 1.78.854 3.487 2.054 4.915a20.531 20.531 0 0 0 5.401 4.604l.09.062c.076.06.188.06.263 0l.093-.063a21.284 21.284 0 0 0 3.838-2.876c2.255-2.167 3.588-4.548 3.636-6.858l-.004-.332c-.125-3.76-3.505-6.779-7.668-6.791ZM9.466 5.4c1.97 0 3.568 1.455 3.568 3.248 0 1.794-1.598 3.249-3.568 3.249s-3.567-1.455-3.567-3.249c0-1.793 1.597-3.248 3.567-3.248Zm0 1.518c-1.05 0-1.9.775-1.9 1.73 0 .956.85 1.731 1.9 1.731 1.05 0 1.9-.775 1.9-1.73 0-.956-.85-1.731-1.9-1.731Z" fill="#ECEBED"/></svg>