<svg width="60" height="59" fill="none" xmlns="http://www.w3.org/2000/svg"><path d="M29.44 27.6c2.64.144 4.644.864 6.012 2.16 1.392 1.272 2.088 2.94 2.088 5.004 0 1.44-.348 2.724-1.044 3.852-.696 1.104-1.728 1.98-3.096 2.628-1.368.648-3.036.972-5.004.972-1.824 0-3.552-.288-5.184-.864-1.608-.6-2.904-1.392-3.888-2.376l1.26-2.052c.84.864 1.956 1.572 3.348 2.124 1.392.528 2.88.792 4.464.792 2.064 0 3.66-.444 4.788-1.332 1.128-.912 1.692-2.16 1.692-3.744 0-1.56-.564-2.784-1.692-3.672-1.128-.888-2.832-1.332-5.112-1.332h-1.8v-1.908l6.984-8.748H20.368V16.8h16.2v1.836L29.44 27.6Z" fill="#F7941E"/><path d="M59 29.428c0 15.682-12.965 28.428-29 28.428S1 45.11 1 29.428 13.966 1 30 1c16.035 0 29 12.746 29 28.428Z" stroke="#F7941E" stroke-width="2"/></svg>