<svg width="60" height="59" fill="none" xmlns="http://www.w3.org/2000/svg"><path d="M39.08 39.696V42H21.404v-1.836l10.476-10.26c1.32-1.296 2.208-2.412 2.664-3.348.48-.96.72-1.92.72-2.88 0-1.488-.516-2.64-1.548-3.456-1.008-.84-2.46-1.26-4.356-1.26-2.952 0-5.244.936-6.876 2.808l-1.836-1.584c.984-1.152 2.232-2.04 3.744-2.664 1.536-.624 3.264-.936 5.184-.936 2.568 0 4.596.612 6.084 1.836 1.512 1.2 2.268 2.856 2.268 4.968a8.553 8.553 0 0 1-.864 3.744c-.576 1.2-1.668 2.58-3.276 4.14l-8.568 8.424h13.86Z" fill="#F7941E"/><path d="M59 29.428c0 15.682-12.965 28.428-29 28.428S1 45.11 1 29.428 13.966 1 30 1c16.035 0 29 12.746 29 28.428Z" stroke="#F7941E" stroke-width="2"/></svg>