<svg width="60" height="60" fill="none" xmlns="http://www.w3.org/2000/svg"><g clip-path="url(#a)" fill="#F7941E"><path d="M51.374 8.967A29.967 29.967 0 0 0 30 0 29.955 29.955 0 0 0 8.626 8.967h42.748Zm7.291 12.18H32.837a2.774 2.774 0 0 1-4.668-2.03c0-2.43 2.9-3.674 4.668-2.029h24.208a30.112 30.112 0 0 0-2.323-4.06H5.276a30.273 30.273 0 0 0-2.316 4.06h22.372v42.543c1.342.214 2.698.337 4.057.369V25.207h30.19a29.698 29.698 0 0 0-.914-4.06Z"/><path d="M30.805 20.433a1.322 1.322 0 0 0 1.468-1.316 1.325 1.325 0 0 0-1.468-1.317c-1.578.168-1.573 2.465 0 2.633Zm-9.532.714H1.333a30.17 30.17 0 0 0-.913 4.06h13.993c1.798-1.677 4.672-.354 4.672 2.029 0 2.417-2.898 3.683-4.67 2.03H.037c0 .25-.037.497-.037.75C0 43.553 8.963 54.99 21.273 58.731V21.147Zm12.18 8.119v30.552a29.869 29.869 0 0 0 4.057-.773V36.388a2.766 2.766 0 0 1-.749-1.892c0-2.473 3.067-3.759 4.806-1.892a2.764 2.764 0 0 1 0 3.785v21.325a30.018 30.018 0 0 0 13.402-11.061A30.041 30.041 0 0 0 60 30.015c0-.252-.033-.498-.038-.749H33.453Z"/><path d="M17.635 27.236c0-1.757-2.66-1.757-2.66 0s2.66 1.758 2.66 0ZM40.864 34.5c0-1.757-2.66-1.757-2.66 0 0 1.758 2.66 1.758 2.66 0Z"/></g><defs><clipPath id="a"><path fill="#fff" d="M0 0h60v60H0z"/></clipPath></defs></svg>