<svg width="25" height="20" fill="none" xmlns="http://www.w3.org/2000/svg"><path d="M17.78 0c1.854.019 3.618.731 4.881 1.97 1.264 1.24 1.917 2.899 1.81 4.54l-.002 6.93c.11 1.691-.544 3.35-1.808 4.59-1.263 1.239-3.027 1.951-4.89 1.97H6.678C2.799 20 0 17.154 0 13.49V6.51C0 2.846 2.8 0 6.679 0H17.78Zm-.02 1.698H6.679c-2.807 0-4.821 2.048-4.821 4.812v6.98c0 2.764 2.014 4.812 4.82 4.812H17.76c1.345-.014 2.625-.53 3.543-1.43a4.307 4.307 0 0 0 1.31-3.382l.002-7.03c.08-1.228-.395-2.432-1.312-3.332-.918-.9-2.198-1.416-3.543-1.43Zm1.855 4.567a.795.795 0 0 1-.044 1.108l-.1.085-5.028 3.68c-1.221.87-2.908.913-4.181.126l-.198-.131-5.06-3.672c-.403-.292-.47-.826-.15-1.193.289-.334.798-.415 1.19-.208l.114.07 5.055 3.668a1.83 1.83 0 0 0 1.935.098l.144-.091 5.018-3.672c.4-.293.985-.234 1.305.132Z" fill="#ECEBED"/></svg>