<svg width="23" height="20" fill="none" xmlns="http://www.w3.org/2000/svg"><path d="m4.925.002.03.001c.577.044 1.078.304 1.535.71.87.771 2.737 3.02 2.878 3.633.156.683-.01 1.127-.508 1.911l-.12.194c-.228.378-.263.534-.193.713 1.086 2.412 2.94 4.094 5.566 5.068.25.082.437.035.963-.239l.274-.14c.74-.369 1.208-.485 1.899-.354.672.127 3.152 1.823 4 2.612.446.415.734.87.784 1.429.052 1.357-1.772 3.268-2.885 3.843-1.266.822-2.872.808-4.673.047C9.765 17.651 2.561 11.154.642 6.884l-.115-.239c-.73-1.581-.714-2.947.122-3.977C1.41 1.522 3.466-.06 4.925.002Zm-.092 1.461-.094.005c-.749.09-2.25 1.264-2.75 2.01l-.087.117c-.43.637-.38 1.512.22 2.71l.114.243c1.934 3.94 8.63 9.934 12.888 11.543l.235.095c1.232.474 2.165.453 2.92-.033l.055-.033c.234-.147.773-.591 1.188-1.026.583-.61.913-1.17.902-1.468-.011-.127-.12-.299-.328-.493-.63-.586-2.924-2.154-3.177-2.202-.24-.045-.436.016-.974.296l-.27.138c-.793.388-1.351.492-2.14.232-3.059-1.133-5.23-3.103-6.492-5.907-.298-.75-.138-1.28.382-2.102l.124-.198c.236-.387.286-.551.241-.746-.053-.231-1.78-2.311-2.426-2.884-.214-.19-.402-.288-.543-.298l.012.001Z" fill="#ECEBED"/></svg>